<?xml version="1.0" encoding="UTF-8" standalone="no" ?>
<!DOCTYPE svg PUBLIC "-//W3C//DTD SVG 1.1//EN" "http://www.w3.org/Graphics/SVG/1.1/DTD/svg11.dtd">
<svg xmlns="http://www.w3.org/2000/svg" xmlns:xlink="http://www.w3.org/1999/xlink" version="1.1" width="250" height="150" viewBox="0 0 250 150" xml:space="preserve">
<desc>Created with Fabric.js 4.6.0</desc>
<defs>
</defs>
<g transform="matrix(0.37 0 0 0.37 165.28 75)" id="tJPDCkuXgvEDRaDAbYh9B"  >
<g style="" vector-effect="non-scaling-stroke"   >
		<g transform="matrix(1 0 0 1 -99.51 49.1)" id="jdlFMKOj43vNH-KgW2J8y"  >
<path style="stroke: none; stroke-width: 1; stroke-dasharray: none; stroke-linecap: butt; stroke-dashoffset: 0; stroke-linejoin: miter; stroke-miterlimit: 4; fill: rgb(249,249,249); fill-rule: nonzero; opacity: 1;" vector-effect="non-scaling-stroke"  transform=" translate(-138.49, -150.6)" d="M 127.7 182.5 C 123 180.9 122.8 180.7 123.60000000000001 178.7 C 124.10000000000001 177.29999999999998 124.50000000000001 177.39999999999998 127.30000000000001 179 C 140.9 186.8 154.5 176.3 149.60000000000002 161.9 C 148.10000000000002 157.5 147.3 156.6 136.00000000000003 147.70000000000002 C 133.00000000000003 145.3 129.50000000000003 141.9 128.30000000000004 140.00000000000003 C 124.00000000000004 133.70000000000002 126.00000000000004 123.70000000000003 132.30000000000004 119.50000000000003 C 137.30000000000004 116.30000000000003 152.50000000000003 116.70000000000003 152.50000000000003 120.00000000000003 C 152.50000000000003 120.80000000000003 151.80000000000004 121.30000000000003 151.00000000000003 121.10000000000002 C 150.20000000000002 120.90000000000002 147.90000000000003 120.30000000000003 146.00000000000003 119.70000000000002 C 141.00000000000003 118.30000000000001 135.20000000000002 119.60000000000002 131.80000000000004 123.00000000000001 C 129.50000000000003 125.30000000000001 129.00000000000003 126.70000000000002 129.00000000000003 130.70000000000002 C 129.00000000000003 137.20000000000002 131.40000000000003 140.70000000000002 140.20000000000002 147.3 C 149.70000000000002 154.20000000000002 152.70000000000002 157.9 153.50000000000003 163.3 C 155.70000000000002 177.70000000000002 142.20000000000002 187.70000000000002 127.70000000000003 182.5 z" stroke-linecap="round" />
</g>
		<g transform="matrix(1 0 0 1 7.68 49.12)" id="jZcybyql72zSMHjZpE3ns"  >
<path style="stroke: none; stroke-width: 1; stroke-dasharray: none; stroke-linecap: butt; stroke-dashoffset: 0; stroke-linejoin: miter; stroke-miterlimit: 4; fill: rgb(249,249,249); fill-rule: nonzero; opacity: 1;" vector-effect="non-scaling-stroke"  transform=" translate(-245.68, -150.62)" d="M 234.2 182.2 C 226.5 179.39999999999998 221.39999999999998 174.6 217.2 166 C 214.79999999999998 161.2 214.5 159.3 214.5 151 C 214.5 142.9 214.9 140.7 217.1 136 C 220.7 128.3 225.1 123.6 231.79999999999998 120.3 C 236.7 117.89999999999999 238.7 117.5 245.99999999999997 117.5 C 256.29999999999995 117.6 261.79999999999995 119.7 268.29999999999995 126.3 C 274.79999999999995 132.7 277.29999999999995 140.1 276.79999999999995 151 C 275.9 170.4 264.79999999999995 182.5 246.79999999999995 183.6 C 241.29999999999995 184 238.19999999999996 183.6 234.19999999999996 182.2 z M 257 178.89999999999998 C 267 174.39999999999998 272.9 165.29999999999998 273.7 152.99999999999997 C 274.7 138.79999999999998 268.8 127.59999999999997 257.5 122.39999999999998 C 247.5 117.69999999999997 233.4 119.79999999999998 226.1 127.09999999999998 C 219.6 133.59999999999997 217.6 138.89999999999998 217.5 149.99999999999997 C 217.5 160.79999999999998 219.5 166.79999999999998 225.3 172.89999999999998 C 232.8 180.7 247 183.49999999999997 257 178.89999999999998 z" stroke-linecap="round" />
</g>
		<g transform="matrix(1 0 0 1 142.49 49.1)" id="YjNlQJIYMNvqFBAw0ZQfi"  >
<path style="stroke: none; stroke-width: 1; stroke-dasharray: none; stroke-linecap: butt; stroke-dashoffset: 0; stroke-linejoin: miter; stroke-miterlimit: 4; fill: rgb(249,249,249); fill-rule: nonzero; opacity: 1;" vector-effect="non-scaling-stroke"  transform=" translate(-380.49, -150.6)" d="M 369.7 182.5 C 365 180.9 364.8 180.7 365.59999999999997 178.7 C 366.09999999999997 177.29999999999998 366.49999999999994 177.39999999999998 369.29999999999995 179 C 382.9 186.8 396.49999999999994 176.3 391.59999999999997 161.9 C 390.09999999999997 157.5 389.29999999999995 156.6 377.99999999999994 147.70000000000002 C 374.99999999999994 145.3 371.49999999999994 141.9 370.29999999999995 140.00000000000003 C 365.99999999999994 133.70000000000002 367.99999999999994 123.70000000000003 374.29999999999995 119.50000000000003 C 379.29999999999995 116.30000000000003 394.49999999999994 116.70000000000003 394.49999999999994 120.00000000000003 C 394.49999999999994 120.80000000000003 393.79999999999995 121.30000000000003 392.99999999999994 121.10000000000002 C 392.19999999999993 120.90000000000002 389.8999999999999 120.30000000000003 387.99999999999994 119.70000000000002 C 382.99999999999994 118.30000000000001 377.19999999999993 119.60000000000002 373.79999999999995 123.00000000000001 C 371.49999999999994 125.30000000000001 370.99999999999994 126.70000000000002 370.99999999999994 130.70000000000002 C 370.99999999999994 137.20000000000002 373.3999999999999 140.70000000000002 382.19999999999993 147.3 C 391.69999999999993 154.20000000000002 394.69999999999993 157.9 395.49999999999994 163.3 C 397.69999999999993 177.70000000000002 384.19999999999993 187.70000000000002 369.69999999999993 182.5 z" stroke-linecap="round" />
</g>
		<g transform="matrix(1 0 0 1 -185.67 49)" id="tuXD38dTrEs9ZF-Z48R4J"  >
<path style="stroke: none; stroke-width: 1; stroke-dasharray: none; stroke-linecap: butt; stroke-dashoffset: 0; stroke-linejoin: miter; stroke-miterlimit: 4; fill: rgb(249,249,249); fill-rule: nonzero; opacity: 1;" vector-effect="non-scaling-stroke"  transform=" translate(-52.33, -150.5)" d="M 29 150.6 L 29 118 L 36.3 118 C 46.3 118.1 51.9 119.5 55.599999999999994 123.2 C 62.599999999999994 129.9 62.3 141 54.8 149.5 C 52.099999999999994 152.6 51.099999999999994 154.4 51.699999999999996 155.3 C 57.4 162.9 70.69999999999999 178.4 73.19999999999999 180.4 C 76.29999999999998 182.8 76.29999999999998 183 74.19999999999999 183 C 70.39999999999999 183 67.6 180.4 57.39999999999999 167.4 L 47.69999999999999 155 L 39.69999999999999 155 L 31.69999999999999 155 L 32.09999999999999 168.7 C 32.499999999999986 181.2 32.29999999999999 182.5 30.799999999999986 182.79999999999998 C 29.099999999999987 183.1 28.999999999999986 181.1 28.999999999999986 150.59999999999997 z M 53.3 147.7 C 55.9 144.6 56.5 142.79999999999998 56.8 137.6 C 57.3 130.2 55.5 125.89999999999999 50.8 123 C 47.199999999999996 120.8 39.3 119.5 35 120.5 L 32 121.2 L 32 136.6 L 32 152.1 L 41.1 151.79999999999998 L 50.3 151.49999999999997 L 53.3 147.69999999999996 z" stroke-linecap="round" />
</g>
		<g transform="matrix(1 0 0 1 -138.78 49.06)" id="1Z6UpFU3GH8adpGGucwqe"  >
<path style="stroke: none; stroke-width: 1; stroke-dasharray: none; stroke-linecap: butt; stroke-dashoffset: 0; stroke-linejoin: miter; stroke-miterlimit: 4; fill: rgb(249,249,249); fill-rule: nonzero; opacity: 1;" vector-effect="non-scaling-stroke"  transform=" translate(-99.22, -150.56)" d="M 86 182.8 C 86 182.60000000000002 86 168.10000000000002 85.9 150.5 L 85.9 118.5 L 98.4 118.2 C 109.9 118 111 118.10000000000001 111 119.7 C 111 121.3 110 121.5 100 121.2 L 89 120.9 L 89 133.9 L 89 147 L 99.6 147 C 107.6 147 110.1 147.3 109.8 148.3 C 109.5 149.10000000000002 106.2 149.60000000000002 99.2 149.8 L 89 150.10000000000002 L 89 165.00000000000003 L 89 179.90000000000003 L 94.5 180.50000000000003 C 97.5 180.90000000000003 102.9 180.90000000000003 106.5 180.50000000000003 C 112.2 179.90000000000003 112.9 180.00000000000003 112.4 181.40000000000003 C 111.9 182.70000000000005 109.7 183.00000000000003 98.9 183.00000000000003 C 91.80000000000001 183.00000000000003 86 182.90000000000003 86 182.80000000000004 z" stroke-linecap="round" />
</g>
		<g transform="matrix(1 0 0 1 -51.5 48.81)" id="Oo64caEbTgEJZnB-lHh74"  >
<path style="stroke: none; stroke-width: 1; stroke-dasharray: none; stroke-linecap: butt; stroke-dashoffset: 0; stroke-linejoin: miter; stroke-miterlimit: 4; fill: rgb(249,249,249); fill-rule: nonzero; opacity: 1;" vector-effect="non-scaling-stroke"  transform=" translate(-186.5, -150.31)" d="M 171 150.5 L 171 117.8 L 180.3 118.2 C 195.8 118.9 202 123.7 202 135.2 C 202 141.89999999999998 200.4 145.6 196 149.29999999999998 C 191.8 152.89999999999998 182 155.49999999999997 182 153.1 C 182 152.6 183.7 151.9 185.8 151.5 C 194.10000000000002 150 199 144.3 199 136 C 199 127.6 193.4 121.6 184.5 120.5 C 181.5 120.1 177.9 120.1 176.5 120.4 L 173.9 121.10000000000001 L 174.1 151.8 C 174.2 179.3 174.1 182.5 172.6 182.8 C 171.2 183.10000000000002 171 180 171 150.5 z" stroke-linecap="round" />
</g>
		<g transform="matrix(1 0 0 1 83.74 48.29)" id="146SkiXxDDTvgl0ZQkPNN"  >
<path style="stroke: none; stroke-width: 1; stroke-dasharray: none; stroke-linecap: butt; stroke-dashoffset: 0; stroke-linejoin: miter; stroke-miterlimit: 4; fill: rgb(249,249,249); fill-rule: nonzero; opacity: 1;" vector-effect="non-scaling-stroke"  transform=" translate(-321.74, -149.79)" d="M 295.8 182.3 C 295.6 181.9 295.6 166.9 295.90000000000003 149.20000000000002 L 296.50000000000006 116.80000000000001 L 320.30000000000007 146.4 C 333.4000000000001 162.70000000000002 344.4000000000001 176 344.70000000000005 176 C 345.00000000000006 176 345.00000000000006 163.1 344.90000000000003 147.3 C 344.6 120.50000000000001 344.70000000000005 118.50000000000001 346.3 118.20000000000002 C 348 117.90000000000002 348 119.70000000000002 347.6 150.10000000000002 C 347.3 167.8 346.90000000000003 182.50000000000003 346.6 182.70000000000002 C 346.40000000000003 183.00000000000003 336.20000000000005 170.60000000000002 324 155.3 C 311.7 140 300.8 126.60000000000001 299.8 125.50000000000001 C 297.8 123.50000000000001 297.8 123.70000000000002 298.2 152.9 C 298.4 174.6 298.2 182.4 297.3 182.70000000000002 C 296.7 182.9 296 182.70000000000002 295.8 182.3 z" stroke-linecap="round" />
</g>
		<g transform="matrix(1 0 0 1 188.5 49)" id="4TWpZ_umvPGIKObzVuo9-"  >
<path style="stroke: none; stroke-width: 1; stroke-dasharray: none; stroke-linecap: butt; stroke-dashoffset: 0; stroke-linejoin: miter; stroke-miterlimit: 4; fill: rgb(249,249,249); fill-rule: nonzero; opacity: 1;" vector-effect="non-scaling-stroke"  transform=" translate(-426.5, -150.5)" d="M 413 150.5 L 413 118 L 426.1 118 C 437.6 118 439.1 118.2 438.8 119.6 C 438.5 121 436.90000000000003 121.19999999999999 427.3 121.1 L 416 120.89999999999999 L 416 133.89999999999998 L 416 146.99999999999997 L 426.5 146.99999999999997 C 435.2 146.99999999999997 437 147.29999999999998 437 148.49999999999997 C 437 149.69999999999996 435.2 149.99999999999997 426.4 149.99999999999997 L 415.9 149.99999999999997 L 416.2 164.39999999999998 C 416.4 172.39999999999998 416.9 179.2 417.3 179.7 C 417.8 180.1 423.1 180.5 429.1 180.39999999999998 C 437.5 180.39999999999998 440 180.7 440 181.7 C 440 182.7 437 183 426.5 183 L 413 183 L 413 150.5 z" stroke-linecap="round" />
</g>
		<g transform="matrix(1 0 0 1 -192.78 -53)" id="HUkBukP-qYm3GpJwYzfcv"  >
<path style="stroke: none; stroke-width: 1; stroke-dasharray: none; stroke-linecap: butt; stroke-dashoffset: 0; stroke-linejoin: miter; stroke-miterlimit: 4; fill: rgb(249,249,249); fill-rule: nonzero; opacity: 1;" vector-effect="non-scaling-stroke"  transform=" translate(-45.22, -48.5)" d="M 42.5 76.3 C 41.5 73.6 35.8 59.199999999999996 29.9 44.099999999999994 C 23.9 28.999999999999993 19 16.499999999999993 19 16.299999999999994 C 19 16.099999999999994 19.8 15.999999999999993 20.8 15.999999999999993 C 22.1 15.999999999999993 23.1 17.199999999999992 23.900000000000002 20.299999999999994 C 25.6 25.89999999999999 45.1 75.19999999999999 45.5 74.8 C 46 74.3 64.6 28.9 67 22.199999999999996 C 68.6 17.899999999999995 69.8 15.999999999999996 71 15.999999999999996 C 72.4 15.999999999999996 70.8 20.599999999999994 62.3 40.8 C 56.599999999999994 54.4 50.5 69 48.699999999999996 73.19999999999999 C 46.9 77.49999999999999 45.199999999999996 80.99999999999999 44.9 80.99999999999999 C 44.5 80.99999999999999 43.5 78.89999999999999 42.5 76.29999999999998 z" stroke-linecap="round" />
</g>
		<g transform="matrix(1 0 0 1 -81.84 -53.32)" id="LnHr9hwH3xLd4mkCs8_bA"  >
<path style="stroke: none; stroke-width: 1; stroke-dasharray: none; stroke-linecap: butt; stroke-dashoffset: 0; stroke-linejoin: miter; stroke-miterlimit: 4; fill: rgb(249,249,249); fill-rule: nonzero; opacity: 1;" vector-effect="non-scaling-stroke"  transform=" translate(-156.16, -48.18)" d="M 153.3 80.2 L 142 79.9 L 142 48.00000000000001 C 142 18.200000000000006 142.1 16.000000000000007 143.8 16.000000000000007 C 145.4 16.000000000000007 145.5 17.900000000000006 145.20000000000002 44.60000000000001 C 145.00000000000003 60.400000000000006 145.10000000000002 74.4 145.50000000000003 75.70000000000002 L 146.10000000000002 78.20000000000002 L 158.40000000000003 77.80000000000001 C 168.00000000000003 77.60000000000001 170.60000000000002 77.80000000000001 170.30000000000004 78.80000000000001 C 170.00000000000003 79.4 169.20000000000005 80.00000000000001 168.50000000000003 80.00000000000001 C 167.80000000000004 80.00000000000001 166.60000000000002 80.10000000000001 165.80000000000004 80.30000000000001 C 165.10000000000005 80.4 159.40000000000003 80.4 153.30000000000004 80.20000000000002 z" stroke-linecap="round" />
</g>
		<g transform="matrix(1 0 0 1 59 -53.5)" id="B3-rRLd45X7Dhd4yHflt-"  >
<path style="stroke: none; stroke-width: 1; stroke-dasharray: none; stroke-linecap: butt; stroke-dashoffset: 0; stroke-linejoin: miter; stroke-miterlimit: 4; fill: rgb(249,249,249); fill-rule: nonzero; opacity: 1;" vector-effect="non-scaling-stroke"  transform=" translate(-297, -48)" d="M 298.3 51.3 L 274.5 21.599999999999998 L 274.2 50.8 C 274 75.8 273.8 80 272.5 80 C 271.2 80 271 75.6 271 47.5 C 271 29.6 271.3 15 271.8 15 C 272.2 15 283 28.1 295.90000000000003 44 C 308.8 60 319.6 73 319.90000000000003 73 C 320.20000000000005 73 320.40000000000003 60.2 320.20000000000005 44.5 C 319.90000000000003 19 320.00000000000006 16 321.40000000000003 16 C 322.8 16 323.00000000000006 19.5 323.00000000000006 48.5 C 323.00000000000006 66.4 322.80000000000007 81 322.50000000000006 81 C 322.20000000000005 81 311.30000000000007 67.6 298.30000000000007 51.3 z" stroke-linecap="round" />
</g>
		<g transform="matrix(1 0 0 1 131.1 -53.54)" id="RWn37-6QmvTLUs0KsPhBz"  >
<path style="stroke: none; stroke-width: 1; stroke-dasharray: none; stroke-linecap: butt; stroke-dashoffset: 0; stroke-linejoin: miter; stroke-miterlimit: 4; fill: rgb(249,249,249); fill-rule: nonzero; opacity: 1;" vector-effect="non-scaling-stroke"  transform=" translate(-369.1, -47.96)" d="M 364.5 79.6 C 352.5 75.8 344.8 66.89999999999999 342 53.699999999999996 C 339 38.89999999999999 346.2 23.399999999999995 358.9 17.699999999999996 C 367.4 13.899999999999995 390.09999999999997 14.399999999999995 395.7 18.599999999999994 C 397.09999999999997 19.599999999999994 397.2 20.099999999999994 396.3 21.099999999999994 C 395.40000000000003 21.999999999999993 394.7 21.999999999999993 393.8 21.299999999999994 C 391.3 19.199999999999992 381.5 16.999999999999993 375 16.999999999999993 C 356.1 16.999999999999993 344.8 27.799999999999994 344.8 45.89999999999999 C 344.8 59.69999999999999 350.40000000000003 69.6 361.3 75 C 371.2 79.8 383.7 80 394.40000000000003 75.5 C 395.8 74.9 396.1 75.1 395.8 76.6 C 395.6 77.69999999999999 394 78.89999999999999 391.5 79.6 C 386.2 81.19999999999999 369.6 81.19999999999999 364.5 79.6 z" stroke-linecap="round" />
</g>
		<g transform="matrix(1 0 0 1 188.5 -53.32)" id="up1D-pdBbG_G4cLpkLHrt"  >
<path style="stroke: none; stroke-width: 1; stroke-dasharray: none; stroke-linecap: butt; stroke-dashoffset: 0; stroke-linejoin: miter; stroke-miterlimit: 4; fill: rgb(249,249,249); fill-rule: nonzero; opacity: 1;" vector-effect="non-scaling-stroke"  transform=" translate(-426.5, -48.18)" d="M 423.8 80.2 L 413 79.9 L 413 48.00000000000001 L 413 16.000000000000007 L 426.1 16.000000000000007 C 436.1 16.000000000000007 439.1 16.300000000000008 438.70000000000005 17.300000000000008 C 438.40000000000003 18.200000000000006 435.50000000000006 18.40000000000001 427.20000000000005 18.10000000000001 L 416.00000000000006 17.800000000000008 L 416.00000000000006 31.400000000000006 L 416.00000000000006 45.00000000000001 L 426.50000000000006 45.00000000000001 C 434.6000000000001 45.00000000000001 437.00000000000006 45.300000000000004 437.00000000000006 46.300000000000004 C 437.00000000000006 47.400000000000006 434.80000000000007 47.6 426.50000000000006 47.2 L 416.00000000000006 46.7 L 416.00000000000006 60.1 C 416.00000000000006 79.6 415.00000000000006 78.2 428.6000000000001 77.8 C 437.2000000000001 77.6 440.00000000000006 77.8 440.00000000000006 78.8 C 440.00000000000006 79.39999999999999 439.40000000000003 80 438.6000000000001 80 C 437.80000000000007 80 436.6000000000001 80.1 435.80000000000007 80.3 C 435.1000000000001 80.39999999999999 429.70000000000005 80.39999999999999 423.80000000000007 80.2 z" stroke-linecap="round" />
</g>
		<g transform="matrix(1 0 0 1 -138.02 -53.65)" id="vwCNXg9KFvOeE1RFV0Klz"  >
<path style="stroke: none; stroke-width: 1; stroke-dasharray: none; stroke-linecap: butt; stroke-dashoffset: 0; stroke-linejoin: miter; stroke-miterlimit: 4; fill: rgb(249,249,249); fill-rule: nonzero; opacity: 1;" vector-effect="non-scaling-stroke"  transform=" translate(-99.98, -47.85)" d="M 74.2 79.2 C 74.4 78.7 79.9 64.10000000000001 86.4 46.7 C 93 29.200000000000003 98.7 15.300000000000004 99.10000000000001 15.700000000000003 C 99.50000000000001 16.200000000000003 105.50000000000001 30.200000000000003 112.50000000000001 47 C 119.40000000000002 63.8 125.40000000000002 78.1 125.70000000000002 78.8 C 126.00000000000001 79.5 125.50000000000001 80 124.30000000000001 80 C 122.70000000000002 80 121.30000000000001 77.4 117.00000000000001 66.5 L 111.70000000000002 52.9 L 99.10000000000002 53.199999999999996 L 86.50000000000003 53.49999999999999 L 82.00000000000003 66.8 C 78.40000000000003 77.3 77.10000000000002 80 75.70000000000003 80 C 74.70000000000003 80 74.00000000000003 79.6 74.20000000000003 79.2 z M 110 49.1 C 110 48.6 107.4 42 104.3 34.5 C 99.39999999999999 22.4 98.5 21 97.7 23.1 C 95.10000000000001 30.1 88 49.400000000000006 88 49.7 C 88 49.900000000000006 93 50 99 50 C 105.1 50 110 49.6 110 49.1 z" stroke-linecap="round" />
</g>
		<g transform="matrix(1 0 0 1 -51.75 -53.5)" id="V7gs4aO25NM3itMXewRdz"  >
<path style="stroke: none; stroke-width: 1; stroke-dasharray: none; stroke-linecap: butt; stroke-dashoffset: 0; stroke-linejoin: miter; stroke-miterlimit: 4; fill: rgb(249,249,249); fill-rule: nonzero; opacity: 1;" vector-effect="non-scaling-stroke"  transform=" translate(-186.25, -48)" d="M 184.5 48 C 184.5 18.2 184.6 16 186.3 16 C 187.9 16 188 18.2 188 48 C 188 77.8 187.9 80 186.3 80 C 184.60000000000002 80 184.5 77.8 184.5 48 z" stroke-linecap="round" />
</g>
		<g transform="matrix(1 0 0 1 -9.02 -53.65)" id="nbv5CqhrdZMpohYndpu_p"  >
<path style="stroke: none; stroke-width: 1; stroke-dasharray: none; stroke-linecap: butt; stroke-dashoffset: 0; stroke-linejoin: miter; stroke-miterlimit: 4; fill: rgb(249,249,249); fill-rule: nonzero; opacity: 1;" vector-effect="non-scaling-stroke"  transform=" translate(-228.98, -47.85)" d="M 203.2 79.2 C 203.39999999999998 78.7 208.89999999999998 64.10000000000001 215.39999999999998 46.7 C 221.99999999999997 29.200000000000003 227.7 15.300000000000004 228.09999999999997 15.700000000000003 C 228.49999999999997 16.200000000000003 234.49999999999997 30.200000000000003 241.49999999999997 47 C 248.39999999999998 63.8 254.39999999999998 78.1 254.69999999999996 78.8 C 254.99999999999997 79.5 254.49999999999997 80 253.29999999999995 80 C 251.69999999999996 80 250.29999999999995 77.4 245.99999999999994 66.5 L 240.69999999999993 52.9 L 228.09999999999994 53.199999999999996 L 215.49999999999994 53.49999999999999 L 210.99999999999994 66.8 C 207.39999999999995 77.3 206.09999999999994 80 204.69999999999993 80 C 203.69999999999993 80 202.99999999999994 79.6 203.19999999999993 79.2 z M 239 49.1 C 239 48.6 236.4 42 233.3 34.5 C 228.4 22.4 227.5 21 226.70000000000002 23.1 C 224.10000000000002 30.1 217.00000000000003 49.400000000000006 217.00000000000003 49.7 C 217.00000000000003 49.900000000000006 222.00000000000003 50 228.00000000000003 50 C 234.10000000000002 50 239.00000000000003 49.6 239.00000000000003 49.1 z" stroke-linecap="round" />
</g>
</g>
</g>
<g transform="matrix(0.28 0 0 0.28 41.69 75)" id="owA8aGYlF9Gh0Z8HEw_tJ"  >
<path style="stroke: none; stroke-width: 0; stroke-dasharray: none; stroke-linecap: butt; stroke-dashoffset: 0; stroke-linejoin: miter; stroke-miterlimit: 4; fill: rgb(255,255,255); fill-rule: nonzero; opacity: 1;" vector-effect="non-scaling-stroke"  transform=" translate(-149.85, -150.16)" d="M 137.5 268.15 C 132.45 262.7 125.45 255.2 122 251.49999999999997 C 118.5 247.79999999999998 112.55 241.44999999999996 108.8 237.39999999999998 C 105 233.29999999999998 101.64999999999999 229.99999999999997 101.3 229.99999999999997 C 100 229.99999999999997 69 224.54999999999998 68.5 224.24999999999997 C 68.2 224.04999999999998 68.1 223.54999999999998 68.25 223.04999999999998 C 68.9 221.49999999999997 74.9 203.74999999999997 74.85 203.7 C 74.8 203.7 72.64999999999999 202.35 70.14999999999999 200.7 C 67.6 199.1 64.94999999999999 197.39999999999998 64.3 197 C 63.599999999999994 196.6 57.8 192.9 51.4 188.8 C 39.25 181 35.95 178.9 29.15 174.55 C 26.849999999999998 173.10000000000002 25 171.70000000000002 25 171.5 C 25 171.25 26.5 168.95 28.4 166.4 C 30.25 163.85 33.25 159.75 35 157.3 C 36.8 154.85000000000002 39.6 151 41.25 148.8 C 42.9 146.55 45.7 142.75 47.45 140.3 L 50.7 135.85000000000002 L 51.300000000000004 130.3 C 51.650000000000006 127.25000000000001 52.050000000000004 122.85000000000001 52.25000000000001 120.50000000000001 C 52.550000000000004 116.50000000000001 53.050000000000004 112.30000000000001 53.20000000000001 112.20000000000002 C 54.35000000000001 111.45000000000002 65.50000000000001 104.95000000000002 68.85000000000001 103.05000000000001 C 71.4 101.60000000000001 73.60000000000001 100.25000000000001 73.75000000000001 100.00000000000001 C 73.90000000000002 99.80000000000001 70.25000000000001 96.05000000000001 65.60000000000001 91.75000000000001 C 61.00000000000001 87.40000000000002 57.25000000000001 83.50000000000001 57.25000000000001 83.05000000000001 C 57.25000000000001 82.05000000000001 111.70000000000002 28.500000000000014 112.70000000000002 28.500000000000014 C 113.05000000000001 28.500000000000014 118.30000000000001 29.500000000000014 124.30000000000001 30.750000000000014 C 137.3 33.40000000000001 155.3 37.15000000000001 160.4 38.20000000000002 C 164.95000000000002 39.20000000000002 166.45000000000002 39.20000000000002 168.3 38.30000000000002 C 169.10000000000002 37.90000000000002 174.5 35.600000000000016 180.25 33.20000000000002 C 190.55 28.950000000000017 201.5 24.350000000000016 205.05 22.80000000000002 C 206.05 22.40000000000002 207.05 22.200000000000017 207.20000000000002 22.40000000000002 C 207.60000000000002 22.75000000000002 210.10000000000002 28.00000000000002 211.35000000000002 31.00000000000002 C 211.75000000000003 31.95000000000002 215.00000000000003 39.20000000000002 218.60000000000002 47.10000000000002 L 225.15000000000003 61.50000000000002 L 240.70000000000005 61.60000000000002 L 256.20000000000005 61.75000000000002 L 256.6 63.25000000000002 C 256.8 64.10000000000002 258.6 72.05000000000003 260.5 81.00000000000003 C 262.45 89.95000000000003 264.45 99.05000000000003 265 101.25000000000003 C 265.5 103.45000000000003 266.3 107.00000000000003 266.75 109.15000000000003 L 267.6 113.00000000000003 L 263.95000000000005 120.15000000000003 C 261.95000000000005 124.05000000000004 259.45000000000005 128.90000000000003 258.40000000000003 130.90000000000003 L 256.50000000000006 134.55000000000004 L 256.50000000000006 141.65000000000003 L 256.50000000000006 148.75000000000003 L 259.1000000000001 152.75000000000003 C 260.50000000000006 154.95000000000002 262.8500000000001 158.55000000000004 264.25000000000006 160.75000000000003 C 265.70000000000005 162.95000000000002 268.6000000000001 167.45000000000002 270.75000000000006 170.75000000000003 C 272.90000000000003 174.05000000000004 274.70000000000005 177.10000000000002 274.70000000000005 177.55000000000004 C 274.75000000000006 178.00000000000003 269.45000000000005 182.65000000000003 262.25000000000006 188.50000000000003 C 245.40000000000006 202.20000000000002 243.75000000000006 203.60000000000002 243.60000000000005 204.05000000000004 C 243.50000000000006 204.25000000000003 244.00000000000006 209.10000000000005 244.75000000000006 214.85000000000005 C 245.45000000000005 220.55000000000004 246.35000000000005 228.15000000000006 246.80000000000007 231.70000000000005 C 247.30000000000007 235.75000000000006 247.40000000000006 238.30000000000004 247.10000000000008 238.60000000000005 C 246.85000000000008 238.85000000000005 241.4000000000001 239.95000000000005 234.95000000000007 241.00000000000006 C 228.50000000000009 242.05000000000007 213.15000000000006 244.65000000000006 200.85000000000008 246.70000000000005 L 178.45000000000007 250.50000000000006 L 164.65000000000006 262.6000000000001 C 147.80000000000007 277.4500000000001 147.15000000000006 278.00000000000006 146.90000000000006 278.00000000000006 C 146.80000000000007 278.00000000000006 142.55000000000007 273.55000000000007 137.50000000000006 268.15000000000003 z M 151.9 271.09999999999997 C 154.3 268.95 156.95000000000002 266.65 157.75 265.95 C 159.9 264.09999999999997 172.65 252.89999999999998 173.3 252.25 C 173.60000000000002 252 179.75 246.6 186.95000000000002 240.3 C 196.10000000000002 232.3 200.00000000000003 228.55 200.05 227.8 C 200.10000000000002 226.5 200.10000000000002 215.95000000000002 200.05 213.20000000000002 L 200 211.15 L 194.9 208.25 C 177.1 198.2 178.1 198.65 173.75 198.3 C 171.55 198.15 167.95 197.9 165.75 197.75 C 163.55 197.6 160.5 197.4 159 197.25 C 157.5 197.1 154.8 196.9 153 196.75 C 151.2 196.6 148.5 196.4 147 196.25 C 140.35 195.7 134.1 195.3 132 195.3 C 130.35 195.3 124.25 197.35000000000002 109.75 202.65 C 98.75 206.70000000000002 89.15 210.25 88.4 210.55 L 87 211.10000000000002 L 93.45 217.95000000000002 C 96.95 221.70000000000002 103.2 228.35000000000002 107.3 232.8 C 129 256.2 146.75 275 147.15 275 C 147.35 275 149.5 273.25 151.9 271.1 z M 220.35000000000002 241.44999999999996 L 245.45000000000002 237.24999999999997 L 245.20000000000002 234.49999999999997 C 245.05 232.99999999999997 244.75000000000003 230.29999999999998 244.50000000000003 228.49999999999997 C 244.05000000000004 225.34999999999997 241.25000000000003 202.24999999999997 240.85000000000002 198.34999999999997 C 240.70000000000002 197.29999999999995 240.55 196.34999999999997 240.40000000000003 196.24999999999997 C 240.30000000000004 196.14999999999998 239.10000000000002 198.09999999999997 237.75000000000003 200.64999999999998 C 234.25000000000003 207.2 228.75000000000003 217.7 226.85000000000002 221.39999999999998 C 225.50000000000003 224.04999999999998 225.10000000000002 224.49999999999997 224.20000000000002 224.29999999999998 C 223.20000000000002 224.04999999999998 208.60000000000002 216.1 204.50000000000003 213.6 C 203.55000000000004 213 202.65000000000003 212.5 202.50000000000003 212.5 C 202.35000000000002 212.5 202.25000000000003 215.25 202.30000000000004 218.65 C 202.35000000000005 222 202.25000000000003 225.9 202.15000000000003 227.35 L 201.85000000000002 229.9 L 192.05 238.55 C 186.65 243.25 182.20000000000002 247.3 182.10000000000002 247.5 C 181.95000000000002 247.85 182.70000000000002 247.75 220.35000000000002 241.45 z M 93.70000000000002 221.19999999999996 C 83.70000000000002 210.64999999999995 84.45000000000002 211.79999999999995 82.50000000000001 203.24999999999997 C 81.60000000000001 199.14999999999998 80.70000000000002 195.44999999999996 80.50000000000001 195.09999999999997 C 80.30000000000001 194.69999999999996 79.65000000000002 195.99999999999997 78.85000000000001 198.34999999999997 C 78.15 200.49999999999997 76.00000000000001 206.84999999999997 74.05000000000001 212.49999999999997 C 72.15 218.09999999999997 70.60000000000001 222.74999999999997 70.65 222.79999999999998 C 70.7 222.89999999999998 76.95 223.95 84.5 225.24999999999997 C 92.05 226.49999999999997 98.5 227.59999999999997 98.75 227.69999999999996 C 100.05 228.14999999999995 99.25 227.09999999999997 93.7 221.19999999999996 z M 228.55 213.69999999999996 C 230.9 209.34999999999997 235.60000000000002 200.44999999999996 238.95000000000002 193.99999999999997 C 245.75000000000003 181.09999999999997 247.8 177.24999999999997 251.8 169.69999999999996 L 254.5 164.64999999999995 L 254.5 151.94999999999996 C 254.5 144.79999999999995 254.3 139.49999999999997 254.05 139.79999999999995 C 253.4 140.49999999999994 236.65 172.89999999999995 231.10000000000002 184.09999999999997 C 229.25000000000003 187.84999999999997 227.50000000000003 191.04999999999995 227.20000000000002 191.19999999999996 C 226.85000000000002 191.29999999999995 225.05 190.64999999999995 223.20000000000002 189.64999999999995 C 218.15 187.09999999999994 199.00000000000003 177.19999999999996 197.3 176.29999999999995 C 195.85000000000002 175.59999999999997 195.8 175.59999999999997 195.05 176.74999999999994 C 194.60000000000002 177.39999999999995 191.20000000000002 181.89999999999995 187.5 186.74999999999994 C 183.8 191.59999999999994 180.45 195.94999999999993 180.15 196.44999999999993 C 179.55 197.19999999999993 180.9 198.09999999999994 193.9 205.34999999999994 C 201.8 209.79999999999993 211.65 215.34999999999994 215.75 217.64999999999995 C 219.9 219.99999999999994 223.5 221.84999999999994 223.75 221.79999999999995 C 224.05 221.74999999999994 226.2 218.09999999999997 228.55 213.69999999999996 z M 91.65 207.24999999999997 C 96.95 205.34999999999997 106.5 201.89999999999998 109.5 200.74999999999997 C 110.45 200.34999999999997 114.2 198.99999999999997 117.75 197.69999999999996 C 124.05 195.44999999999996 126.05 194.49999999999997 124.45 194.49999999999997 C 123.5 194.49999999999997 89.9 192.09999999999997 85.30000000000001 191.69999999999996 C 81.9 191.44999999999996 81.85000000000001 191.44999999999996 82.10000000000001 192.59999999999997 C 83.9 201.04999999999995 85.85000000000001 208.99999999999997 86.15 208.99999999999997 C 86.35000000000001 208.99999999999997 88.85000000000001 208.19999999999996 91.65 207.24999999999997 z M 77.55000000000001 196.09999999999997 L 79.35000000000001 190.74999999999997 L 74.30000000000001 186.64999999999998 C 71.50000000000001 184.39999999999998 67.10000000000001 180.84999999999997 64.50000000000001 178.74999999999997 C 61.90000000000001 176.64999999999998 57.100000000000016 172.79999999999998 53.850000000000016 170.19999999999996 L 47.95000000000002 165.39999999999995 L 48.250000000000014 162.34999999999994 C 48.850000000000016 155.69999999999993 50.05000000000001 143.14999999999995 50.250000000000014 141.49999999999994 C 50.500000000000014 139.44999999999993 51.15000000000001 138.69999999999993 43.95000000000002 148.49999999999994 C 36.40000000000002 158.84999999999994 33.40000000000002 162.89999999999995 30.30000000000002 167.09999999999994 L 27.500000000000018 170.99999999999994 L 33.850000000000016 175.14999999999995 C 37.40000000000001 177.39999999999995 41.600000000000016 180.14999999999995 43.250000000000014 181.19999999999996 C 44.90000000000001 182.19999999999996 48.30000000000001 184.34999999999997 50.750000000000014 185.94999999999996 C 61.90000000000001 193.14999999999995 75.20000000000002 201.49999999999997 75.45000000000002 201.49999999999997 C 75.60000000000002 201.49999999999997 76.55000000000001 199.04999999999998 77.55000000000001 196.09999999999997 z M 245.70000000000002 199.39999999999998 C 246.8 198.49999999999997 251.60000000000002 194.64999999999998 256.25 190.84999999999997 C 260.95 187.04999999999995 266.5 182.54999999999995 268.6 180.84999999999997 C 270.70000000000005 179.14999999999998 272.45000000000005 177.59999999999997 272.45000000000005 177.44999999999996 C 272.50000000000006 177.19999999999996 268.15000000000003 170.29999999999995 259.80000000000007 157.54999999999995 L 256.75000000000006 152.79999999999995 L 256.50000000000006 159.29999999999995 L 256.25000000000006 165.74999999999994 L 253.20000000000005 171.49999999999994 C 251.50000000000006 174.64999999999995 249.45000000000005 178.49999999999994 248.65000000000003 179.99999999999994 C 241.25000000000003 193.64999999999995 241.80000000000004 192.04999999999995 242.75000000000003 197.74999999999994 C 242.85000000000002 198.29999999999995 242.95000000000002 199.24999999999994 242.95000000000002 199.89999999999995 C 243.00000000000003 201.34999999999994 243.20000000000002 201.29999999999995 245.70000000000002 199.39999999999995 z M 179.5 193.99999999999997 C 188.25 181.79999999999998 195.65 172.89999999999998 206.4 161.7 C 212.8 155 218.05 149.39999999999998 218.05 149.25 C 218.05 148.7 208.35000000000002 142.55 207.9 142.8 C 207.70000000000002 142.95000000000002 205.15 146.25 202.20000000000002 150.15 C 199.25000000000003 154.05 195.9 158.4 194.8 159.8 C 193.65 161.20000000000002 190.85000000000002 164.9 188.5 168 C 181.7 177.05 181.5 177.15 181.5 170.95 L 181.5 167 L 179.4 168.65 C 177.15 170.35 171.9 174.5 159.9 184.05 C 155.9 187.3 152.05 190.25 151.4 190.70000000000002 C 150.35 191.35000000000002 149.15 191.25000000000003 137.5 189.20000000000002 C 129.45 187.8 124.55 186.70000000000002 124.2 186.25000000000003 C 123.75 185.65000000000003 122.75 182.15000000000003 118.9 167.20000000000002 L 117.9 163.10000000000002 L 110.05000000000001 160.20000000000002 C 95.65 154.85000000000002 84.95000000000002 150.65 84.45000000000002 150.15 C 84.10000000000002 149.8 84.15000000000002 149.25 84.45000000000002 148.45000000000002 C 84.75000000000001 147.8 86.00000000000001 143.55 87.25000000000001 139.00000000000003 C 88.55000000000001 134.45000000000002 90.35000000000001 128.00000000000003 91.30000000000001 124.65000000000003 C 92.30000000000001 121.25000000000003 93.00000000000001 118.20000000000003 92.9 117.85000000000004 C 92.75 117.15000000000003 76.35000000000001 101.50000000000003 75.80000000000001 101.50000000000003 C 75.50000000000001 101.50000000000003 71.25000000000001 103.95000000000003 59.65000000000001 110.70000000000003 C 57.350000000000016 112.05000000000003 55.350000000000016 113.40000000000003 55.100000000000016 113.70000000000003 C 54.750000000000014 114.15000000000003 53.65000000000001 124.50000000000003 52.70000000000002 135.75000000000003 C 52.30000000000002 140.80000000000004 51.90000000000002 145.25000000000003 51.750000000000014 146.05000000000004 C 51.45000000000002 147.60000000000005 50.30000000000001 160.75000000000003 50.250000000000014 162.70000000000005 C 50.250000000000014 164.90000000000003 48.600000000000016 163.40000000000003 71.10000000000002 181.50000000000006 C 80.55000000000003 189.10000000000005 81.05000000000003 189.45000000000005 83.60000000000002 189.70000000000005 C 85.95000000000002 189.90000000000003 94.90000000000002 190.55000000000004 115.50000000000003 192.00000000000006 C 121.50000000000003 192.40000000000006 124.95000000000003 192.70000000000005 132.00000000000003 193.25000000000006 C 135.50000000000003 193.55000000000007 139.35000000000002 193.85000000000005 146.00000000000003 194.25000000000006 C 151.30000000000004 194.60000000000005 155.25000000000003 194.90000000000006 159.75000000000003 195.30000000000007 C 164.05000000000004 195.70000000000007 173.05000000000004 196.35000000000008 175.75000000000003 196.40000000000006 C 177.60000000000002 196.45000000000007 177.90000000000003 196.25000000000006 179.50000000000003 194.00000000000006 z M 151.55 188.14999999999998 C 152.45000000000002 187.34999999999997 155.9 184.59999999999997 159.25 181.99999999999997 C 166.7 176.14999999999998 175.1 169.49999999999997 175.75 168.89999999999998 C 176.05 168.64999999999998 175.15 168.84999999999997 173.75 169.39999999999998 C 172.4 169.95 169.1 171.24999999999997 166.5 172.24999999999997 C 163.9 173.24999999999997 159.25 175.09999999999997 156.2 176.29999999999998 C 153.14999999999998 177.49999999999997 150.35 178.49999999999997 150 178.49999999999997 C 149.7 178.49999999999997 148.55 177.79999999999998 147.45 176.94999999999996 L 145.54999999999998 175.44999999999996 L 139.89999999999998 176.69999999999996 C 136.79999999999998 177.39999999999995 133.34999999999997 178.09999999999997 132.24999999999997 178.29999999999995 L 130.19999999999996 178.59999999999997 L 127.89999999999996 173.64999999999998 C 126.59999999999997 170.95 124.09999999999997 165.7 122.34999999999997 161.99999999999997 C 117.69999999999996 152.09999999999997 116.44999999999996 149.59999999999997 116.79999999999997 150.99999999999997 C 116.99999999999997 151.69999999999996 118.99999999999997 159.54999999999998 121.29999999999997 168.44999999999996 C 123.54999999999997 177.34999999999997 125.69999999999997 184.79999999999995 125.99999999999997 184.99999999999997 C 126.29999999999997 185.14999999999998 128.79999999999998 185.69999999999996 131.64999999999998 186.19999999999996 C 135.54999999999998 186.84999999999997 145.34999999999997 188.59999999999997 149.59999999999997 189.44999999999996 C 149.74999999999997 189.44999999999996 150.64999999999998 188.89999999999995 151.54999999999995 188.14999999999995 z M 229.60000000000002 182.49999999999997 C 231.40000000000003 179.04999999999998 236.3 169.49999999999997 240.50000000000003 161.24999999999997 C 244.70000000000002 152.99999999999997 249.90000000000003 142.99999999999997 252.00000000000003 138.99999999999997 C 254.10000000000002 134.99999999999997 258 127.44999999999997 260.65000000000003 122.14999999999998 L 265.50000000000006 112.54999999999998 L 264.00000000000006 105.89999999999998 C 263.15000000000003 102.24999999999997 262.05000000000007 97.09999999999998 261.50000000000006 94.49999999999997 C 260.90000000000003 91.89999999999998 259.15000000000003 83.89999999999998 257.6000000000001 76.74999999999997 L 254.70000000000007 63.74999999999997 L 238.25000000000009 63.49999999999997 C 228.35000000000008 63.29999999999997 220.75000000000009 62.99999999999997 219.25000000000009 62.64999999999997 C 217.9000000000001 62.29999999999997 212.95000000000007 61.34999999999997 208.25000000000009 60.49999999999997 C 203.60000000000008 59.64999999999997 198.1500000000001 58.59999999999997 196.1500000000001 58.199999999999974 C 191.0500000000001 57.199999999999974 190.8000000000001 57.24999999999997 189.6500000000001 59.39999999999998 C 189.10000000000008 60.39999999999998 186.60000000000008 64.99999999999997 184.0500000000001 69.54999999999998 C 181.5500000000001 74.09999999999998 179.50000000000009 78.04999999999998 179.5500000000001 78.29999999999998 C 179.5500000000001 78.54999999999998 180.2000000000001 79.24999999999999 181.00000000000009 79.89999999999998 L 182.45000000000007 81.04999999999998 L 187.85000000000008 77.34999999999998 C 190.80000000000007 75.29999999999998 194.9000000000001 72.49999999999999 196.95000000000007 71.04999999999998 C 199.00000000000009 69.64999999999998 200.95000000000007 68.49999999999999 201.25000000000009 68.49999999999999 C 201.8000000000001 68.49999999999999 203.60000000000008 72.34999999999998 206.50000000000009 79.69999999999999 C 207.35000000000008 81.89999999999999 208.35000000000008 84.24999999999999 208.75000000000009 84.94999999999999 L 209.4000000000001 86.24999999999999 L 209.75000000000009 84.34999999999998 C 209.95000000000007 83.29999999999998 210.4000000000001 82.29999999999998 210.70000000000007 82.19999999999997 C 211.05000000000007 82.04999999999997 216.60000000000008 83.99999999999997 223.05000000000007 86.49999999999997 C 229.50000000000006 89.04999999999997 238.80000000000007 92.64999999999998 243.75000000000006 94.54999999999997 C 248.70000000000005 96.49999999999997 253.15000000000006 98.24999999999997 253.60000000000005 98.54999999999997 C 254.10000000000005 98.79999999999997 254.80000000000004 98.99999999999997 255.20000000000005 98.99999999999997 C 255.60000000000005 98.99999999999997 256.05000000000007 99.14999999999998 256.20000000000005 99.39999999999998 C 256.50000000000006 99.89999999999998 254.40000000000003 106.19999999999997 248.75000000000006 121.24999999999997 C 246.10000000000005 128.39999999999998 243.25000000000006 136.14999999999998 242.40000000000006 138.49999999999997 C 241.55000000000007 140.84999999999997 240.85000000000005 142.79999999999998 240.75000000000006 142.89999999999998 C 240.65000000000006 142.99999999999997 236.25000000000006 144.49999999999997 231.00000000000006 146.29999999999998 C 225.75000000000006 148.04999999999998 221.10000000000005 149.64999999999998 220.75000000000006 149.85 C 220.40000000000006 150.1 216.90000000000006 153.65 212.95000000000005 157.75 C 209.05000000000004 161.9 203.95000000000005 167.2 201.65000000000003 169.55 C 198.50000000000003 172.8 197.65000000000003 174 198.10000000000002 174.35000000000002 C 198.65000000000003 174.8 204.70000000000002 177.95000000000002 221.70000000000002 186.70000000000002 C 224.15 187.95000000000002 226.20000000000002 188.95000000000002 226.25000000000003 188.85000000000002 C 226.30000000000004 188.8 227.80000000000004 185.95000000000002 229.60000000000002 182.50000000000003 z M 138.40000000000003 174.94999999999996 C 141.20000000000005 174.34999999999997 143.45000000000005 173.64999999999995 143.40000000000003 173.39999999999995 C 143.15000000000003 172.74999999999994 117.40000000000003 145.44999999999996 117.20000000000003 145.64999999999995 C 117.00000000000003 145.84999999999994 118.35000000000004 148.94999999999996 123.70000000000003 160.24999999999994 C 125.50000000000003 164.09999999999994 127.95000000000003 169.34999999999994 129.15000000000003 171.84999999999994 C 130.90000000000003 175.74999999999994 131.40000000000003 176.44999999999993 132.25000000000003 176.29999999999993 C 132.80000000000004 176.19999999999993 135.55000000000004 175.59999999999994 138.40000000000003 174.94999999999993 z M 159.25000000000003 172.99999999999997 C 163.65000000000003 171.29999999999998 168.50000000000003 169.39999999999998 170.00000000000003 168.79999999999998 C 172.05000000000004 167.95 180.30000000000004 164.64999999999998 181.35000000000002 164.24999999999997 C 181.45000000000002 164.19999999999996 183.20000000000002 149.34999999999997 184.00000000000003 141.64999999999998 C 184.60000000000002 135.84999999999997 185.00000000000003 132.49999999999997 185.45000000000002 128.89999999999998 L 185.85000000000002 125.99999999999997 L 168.55 126.04999999999997 L 151.25 126.04999999999997 L 161.75 129.04999999999995 C 167.55 130.64999999999995 172.85 132.14999999999995 173.65 132.29999999999995 L 175 132.64999999999995 L 175 139.34999999999994 L 175 146.09999999999994 L 173.3 147.89999999999995 C 172.4 148.94999999999996 168.9 152.84999999999994 165.55 156.64999999999995 C 162.20000000000002 160.39999999999995 159.3 163.49999999999994 159.05 163.49999999999994 C 158.85000000000002 163.49999999999994 158.25 163.04999999999995 157.75 162.49999999999994 C 156.75 161.34999999999994 156.8 161.39999999999995 144.5 159.94999999999993 C 139.4 159.39999999999992 135.15 158.79999999999993 135.05 158.69999999999993 C 134.95000000000002 158.59999999999994 133.8 154.14999999999992 132.5 148.74999999999994 C 131.15 143.34999999999994 130 138.79999999999995 129.85 138.69999999999993 C 129.15 137.99999999999994 119.6 134.99999999999994 118.75 135.19999999999993 C 117.15 135.59999999999994 114.3 138.74999999999994 114.8 139.64999999999992 C 115.05 140.04999999999993 118.64999999999999 143.94999999999993 122.8 148.29999999999993 C 126.95 152.69999999999993 134 160.19999999999993 138.5 164.99999999999991 C 147.1 174.14999999999992 149.85 176.6999999999999 150.7 176.29999999999993 C 151 176.19999999999993 154.85 174.69999999999993 159.25 172.99999999999991 z M 190.25000000000003 153.49999999999997 C 193.60000000000002 145.64999999999998 198.30000000000004 134.64999999999998 200.70000000000002 128.99999999999997 C 203.10000000000002 123.34999999999997 205.60000000000002 117.49999999999997 206.3 115.94999999999997 C 206.95000000000002 114.39999999999998 207.5 112.94999999999997 207.5 112.69999999999997 C 207.5 112.24999999999997 199.55 110.84999999999998 158.75 103.94999999999997 C 147.5 102.09999999999998 138 100.39999999999998 137.65 100.29999999999997 C 137.3 100.14999999999996 137 100.14999999999996 137 100.24999999999997 C 137 100.39999999999998 138.2 101.04999999999997 139.65 101.69999999999997 C 141.05 102.34999999999998 144.85 104.09999999999998 148 105.64999999999998 C 151.15 107.14999999999998 160.05 111.34999999999998 167.75 114.99999999999997 C 175.45 118.59999999999997 183.05 122.14999999999998 184.65 122.89999999999998 C 187.4 124.19999999999997 187.5 124.34999999999998 187.5 126.14999999999998 C 187.5 127.79999999999998 184.7 153.74999999999997 183.5 163.2 C 183.1 166.54999999999998 183.35 170.29999999999998 183.9 168.5 C 184 168.1 186.85 161.35 190.25 153.5 z M 191.00000000000003 161.49999999999997 C 192.75000000000003 159.14999999999998 197.45000000000002 152.99999999999997 201.45000000000002 147.74999999999997 C 216.70000000000002 127.74999999999997 218.50000000000003 125.34999999999997 218.50000000000003 124.89999999999998 C 218.50000000000003 124.44999999999997 201.15000000000003 89.54999999999998 200.70000000000002 89.04999999999998 C 200.45000000000002 88.74999999999999 138.40000000000003 97.54999999999998 137.60000000000002 97.99999999999999 C 137.20000000000002 98.19999999999999 141.25000000000003 99.04999999999998 146.60000000000002 99.89999999999999 C 151.90000000000003 100.8 160.75000000000003 102.3 166.25000000000003 103.19999999999999 C 171.75000000000003 104.14999999999999 183.80000000000004 106.19999999999999 193.00000000000003 107.74999999999999 C 202.20000000000002 109.34999999999998 209.90000000000003 110.84999999999998 210.05000000000004 111.09999999999998 C 210.25000000000003 111.39999999999998 209.80000000000004 112.89999999999998 209.15000000000003 114.44999999999997 C 208.45000000000005 115.99999999999997 207.25000000000003 118.69999999999997 206.50000000000003 120.49999999999997 C 204.00000000000003 126.39999999999998 197.45000000000002 141.69999999999996 196.80000000000004 143.24999999999997 C 195.05000000000004 147.09999999999997 187.60000000000005 164.74999999999997 187.15000000000003 165.99999999999997 C 186.70000000000005 167.09999999999997 187.40000000000003 166.29999999999998 191.00000000000003 161.49999999999997 z M 165.50000000000003 153.69999999999996 C 169.05000000000004 149.69999999999996 172.00000000000003 146.19999999999996 172.00000000000003 145.99999999999997 C 172.00000000000003 145.34999999999997 166.50000000000003 143.29999999999998 166.05000000000004 143.79999999999998 C 165.05000000000004 144.95 156.50000000000003 157.85 156.50000000000003 158.24999999999997 C 156.50000000000003 158.64999999999998 158.50000000000003 160.99999999999997 158.80000000000004 160.99999999999997 C 158.90000000000003 160.99999999999997 161.90000000000003 157.69999999999996 165.50000000000003 153.69999999999996 z M 117.00000000000003 159.89999999999995 C 117.00000000000003 159.54999999999995 116.65000000000003 157.99999999999994 116.20000000000003 156.49999999999994 C 115.80000000000003 154.99999999999994 114.65000000000003 150.69999999999993 113.70000000000003 146.99999999999994 C 112.75000000000003 143.29999999999995 111.85000000000004 139.89999999999995 111.70000000000003 139.44999999999993 C 111.55000000000003 138.84999999999994 113.25000000000003 136.99999999999994 117.60000000000004 133.19999999999993 C 126.50000000000004 125.44999999999993 126.05000000000004 125.94999999999993 126.25000000000004 123.44999999999993 C 126.65000000000005 118.84999999999994 128.00000000000006 101.64999999999993 128.10000000000005 99.49999999999993 C 128.25000000000006 96.94999999999993 127.80000000000005 97.14999999999993 137.50000000000006 95.74999999999993 L 143.25000000000006 94.89999999999993 L 147.75000000000006 87.59999999999994 C 150.25000000000006 83.59999999999994 153.85000000000005 77.74999999999994 155.85000000000005 74.54999999999994 C 157.80000000000004 71.34999999999994 159.35000000000005 68.69999999999995 159.25000000000006 68.59999999999994 C 159.15000000000006 68.44999999999993 150.05000000000007 73.34999999999994 140.00000000000006 78.99999999999994 C 137.65000000000006 80.34999999999994 134.20000000000005 82.24999999999994 132.25000000000006 83.29999999999994 C 130.35000000000005 84.29999999999994 127.95000000000006 85.59999999999994 127.00000000000006 86.14999999999993 C 126.05000000000005 86.69999999999993 120.75000000000006 89.59999999999994 115.25000000000006 92.64999999999993 C 109.75000000000006 95.64999999999993 105.00000000000006 98.34999999999994 104.65000000000006 98.59999999999994 C 104.00000000000006 99.14999999999993 100.25000000000006 106.79999999999994 96.95000000000006 114.24999999999994 C 94.75000000000006 119.34999999999994 86.30000000000005 148.49999999999994 86.90000000000006 149.09999999999994 C 87.10000000000007 149.29999999999993 89.60000000000007 150.34999999999994 92.50000000000006 151.44999999999993 C 95.40000000000006 152.49999999999994 101.90000000000006 154.99999999999994 107.00000000000006 156.94999999999993 C 112.10000000000005 158.89999999999992 116.40000000000006 160.49999999999994 116.65000000000006 160.49999999999994 C 116.85000000000007 160.49999999999994 117.00000000000006 160.19999999999993 117.00000000000006 159.89999999999995 z M 153.50000000000003 158.84999999999994 C 153.50000000000003 158.24999999999994 132.80000000000004 139.39999999999995 132.65000000000003 139.84999999999994 C 132.45000000000005 140.34999999999994 135.75000000000003 154.24999999999994 136.50000000000003 156.29999999999993 C 136.85000000000002 157.19999999999993 137.50000000000003 157.39999999999992 140.60000000000002 157.69999999999993 C 147.8 158.34999999999994 150.25000000000003 158.64999999999992 150.45000000000002 158.79999999999993 C 150.70000000000002 159.04999999999993 153.50000000000003 159.04999999999993 153.50000000000003 158.84999999999994 z M 157.15000000000003 153.39999999999995 C 157.60000000000002 152.64999999999995 158.00000000000003 151.94999999999996 158.00000000000003 151.84999999999994 C 158.00000000000003 151.59999999999994 150.85000000000002 152.49999999999994 150.55000000000004 152.79999999999993 C 150.40000000000003 152.94999999999993 151.30000000000004 153.89999999999992 152.50000000000003 154.94999999999993 C 154.95000000000002 157.04999999999993 154.80000000000004 157.14999999999992 157.15000000000003 153.39999999999992 z M 157.95000000000005 149.69999999999996 C 158.15000000000003 149.49999999999997 154.05000000000004 138.94999999999996 153.50000000000006 138.34999999999997 C 153.35000000000005 138.14999999999998 151.45000000000005 138.34999999999997 149.35000000000005 138.79999999999995 C 146.25000000000006 139.49999999999994 145.55000000000004 139.79999999999995 145.70000000000005 140.44999999999996 C 145.85000000000005 140.89999999999995 146.10000000000005 142.09999999999997 146.30000000000004 143.09999999999997 C 146.45000000000005 144.14999999999998 146.90000000000003 145.19999999999996 147.30000000000004 145.54999999999995 C 148.20000000000005 146.29999999999995 148.20000000000005 145.59999999999997 147.40000000000003 142.89999999999995 C 146.90000000000003 141.29999999999995 146.95000000000005 140.84999999999994 147.50000000000003 140.49999999999994 C 148.50000000000003 139.89999999999995 152.95000000000002 140.04999999999995 153.45000000000002 140.69999999999993 C 154.10000000000002 141.54999999999993 154.60000000000002 146.39999999999992 154.05 146.69999999999993 C 153.8 146.89999999999992 152.20000000000002 147.14999999999992 150.55 147.29999999999993 C 148.85000000000002 147.49999999999991 147.5 147.69999999999993 147.5 147.79999999999993 C 147.5 147.84999999999994 147.75 148.54999999999993 148 149.24999999999991 L 148.5 150.54999999999993 L 153.15 150.19999999999993 C 155.65 150.04999999999993 157.85 149.79999999999993 157.95000000000002 149.69999999999993 z M 162.10000000000005 146.14999999999995 C 163.05000000000004 144.79999999999995 164.00000000000006 143.44999999999996 164.20000000000005 143.09999999999994 C 164.45000000000005 142.64999999999995 163.50000000000006 141.94999999999993 160.80000000000004 140.74999999999994 C 158.75000000000003 139.79999999999995 156.85000000000005 138.99999999999994 156.55000000000004 138.99999999999994 C 156.15000000000003 138.99999999999994 156.70000000000005 140.74999999999994 159.25000000000003 146.89999999999995 C 159.65000000000003 147.74999999999994 160.05000000000004 148.49999999999994 160.20000000000002 148.49999999999994 C 160.3 148.49999999999994 161.15 147.44999999999993 162.10000000000002 146.14999999999995 z M 144.95000000000005 145.19999999999996 C 144.15000000000003 141.89999999999995 143.70000000000005 141.54999999999995 143.00000000000006 143.74999999999997 C 142.40000000000006 145.54999999999998 142.45000000000005 145.64999999999998 143.80000000000007 146.74999999999997 C 144.60000000000008 147.39999999999998 145.30000000000007 147.84999999999997 145.40000000000006 147.74999999999997 C 145.50000000000006 147.69999999999996 145.30000000000007 146.54999999999998 144.95000000000007 145.19999999999996 z M 227.35000000000005 145.44999999999996 C 230.75000000000006 144.29999999999995 233.45000000000005 143.29999999999995 233.35000000000005 143.14999999999995 C 233.25000000000006 143.04999999999995 230.35000000000005 142.89999999999995 226.95000000000005 142.74999999999994 C 223.55000000000004 142.59999999999994 218.80000000000004 142.39999999999995 216.40000000000003 142.24999999999994 C 213.95000000000005 142.09999999999994 212.00000000000003 142.09999999999994 212.00000000000003 142.24999999999994 C 212.00000000000003 142.69999999999993 219.75000000000003 147.49999999999994 220.45000000000002 147.49999999999994 C 220.85000000000002 147.49999999999994 223.95000000000002 146.54999999999995 227.35000000000002 145.44999999999993 z M 152.30000000000007 144.19999999999996 C 152.15000000000006 143.74999999999997 152.00000000000006 143.09999999999997 152.00000000000006 142.69999999999996 C 152.00000000000006 142.29999999999995 151.50000000000006 141.99999999999997 150.75000000000006 141.99999999999997 C 150.00000000000006 141.99999999999997 149.50000000000006 142.29999999999998 149.50000000000006 142.69999999999996 C 149.50000000000006 144.19999999999996 150.15000000000006 144.99999999999997 151.35000000000005 144.99999999999997 C 152.30000000000004 144.99999999999997 152.55000000000004 144.79999999999998 152.30000000000004 144.19999999999996 z M 173.25000000000006 139.14999999999995 L 173.20000000000005 134.24999999999994 L 168.00000000000006 132.84999999999994 C 165.10000000000005 132.09999999999994 158.95000000000005 130.34999999999994 154.30000000000007 128.99999999999994 L 145.90000000000006 126.59999999999994 L 146.20000000000007 128.14999999999995 C 147.05000000000007 132.29999999999995 147.65000000000006 132.79999999999995 156.75000000000009 136.79999999999995 C 161.45000000000007 138.84999999999997 166.95000000000007 141.29999999999995 169.00000000000009 142.24999999999994 C 171.0500000000001 143.14999999999995 172.85000000000008 143.94999999999993 173.00000000000009 143.94999999999993 C 173.1500000000001 143.99999999999994 173.25000000000009 141.79999999999993 173.25000000000009 139.14999999999992 z M 142.70000000000005 139.79999999999995 C 143.70000000000005 137.79999999999995 144.50000000000006 135.99999999999994 144.50000000000006 135.84999999999997 C 144.50000000000006 135.59999999999997 136.50000000000006 138.84999999999997 136.10000000000005 139.24999999999997 C 135.90000000000006 139.44999999999996 140.15000000000006 143.44999999999996 140.60000000000005 143.49999999999997 C 140.75000000000006 143.49999999999997 141.70000000000005 141.84999999999997 142.70000000000005 139.79999999999998 z M 242.90000000000003 131.34999999999997 C 249.85000000000002 112.59999999999997 254.00000000000003 101.29999999999997 254.00000000000003 100.99999999999997 C 254.00000000000003 100.79999999999997 252.50000000000003 100.04999999999997 250.65000000000003 99.34999999999997 C 229.75000000000003 91.29999999999997 215.90000000000003 85.89999999999996 214.40000000000003 85.29999999999997 C 213.35000000000002 84.84999999999997 212.35000000000002 84.49999999999997 212.10000000000002 84.49999999999997 C 211.85000000000002 84.49999999999997 211.40000000000003 85.89999999999998 211.10000000000002 87.64999999999998 C 210.8 89.34999999999998 210.05 92.84999999999998 209.50000000000003 95.34999999999998 L 208.45000000000002 99.99999999999999 L 214.8 112.49999999999999 L 221.10000000000002 125.04999999999998 L 219.85000000000002 126.89999999999998 C 219.15000000000003 127.89999999999998 216.65000000000003 131.24999999999997 214.35000000000002 134.24999999999997 C 212.00000000000003 137.29999999999998 210.20000000000002 139.84999999999997 210.25000000000003 139.99999999999997 C 210.35000000000002 140.14999999999998 212.75000000000003 140.34999999999997 215.60000000000002 140.44999999999996 C 218.45000000000002 140.54999999999995 224.70000000000002 140.74999999999997 229.50000000000003 140.94999999999996 C 234.30000000000004 141.09999999999997 238.50000000000003 141.19999999999996 238.80000000000004 141.09999999999997 C 239.05000000000004 141.04999999999995 240.90000000000003 136.64999999999998 242.90000000000003 131.34999999999997 z M 139.50000000000003 135.54999999999995 C 145.95000000000002 132.84999999999997 145.80000000000004 133.09999999999997 144.05000000000004 128.39999999999995 C 143.15000000000003 125.94999999999995 138.35000000000005 118.49999999999994 137.65000000000003 118.49999999999994 C 137.35000000000002 118.49999999999994 121.30000000000004 132.54999999999995 121.10000000000004 132.99999999999994 C 121.05000000000004 133.14999999999995 123.50000000000004 134.19999999999993 126.60000000000004 135.24999999999994 C 131.10000000000002 136.74999999999994 133.40000000000003 137.64999999999995 133.75000000000003 137.99999999999994 C 133.75000000000003 137.99999999999994 136.35000000000002 136.89999999999995 139.50000000000003 135.54999999999995 z M 149.25000000000003 136.74999999999994 L 150.75000000000003 136.39999999999995 L 149.30000000000004 135.64999999999995 C 147.95000000000005 134.94999999999996 147.75000000000003 134.94999999999996 147.15000000000003 135.79999999999995 C 146.35000000000002 136.89999999999995 146.30000000000004 137.54999999999995 147.15000000000003 137.29999999999995 C 147.45000000000005 137.14999999999995 148.45000000000005 136.94999999999996 149.25000000000003 136.74999999999994 z M 182.00000000000003 124.09999999999994 C 182.00000000000003 123.94999999999993 173.55000000000004 119.89999999999993 165.50000000000003 116.14999999999993 C 163.45000000000002 115.19999999999993 160.40000000000003 113.74999999999993 158.75000000000003 112.94999999999993 C 151.95000000000002 109.64999999999993 130.25000000000003 99.59999999999994 130.15000000000003 99.64999999999993 C 130.00000000000003 99.84999999999994 129.05000000000004 111.24999999999993 128.70000000000005 117.24999999999994 C 128.55000000000004 120.29999999999994 128.30000000000004 122.89999999999995 128.15000000000003 123.14999999999995 C 127.55000000000004 124.14999999999995 128.95000000000005 123.14999999999995 132.90000000000003 119.74999999999994 C 135.30000000000004 117.69999999999995 137.50000000000003 115.99999999999994 137.85000000000002 115.99999999999994 C 138.15000000000003 115.99999999999994 139.8 117.84999999999994 141.45000000000002 120.14999999999995 L 144.45000000000002 124.24999999999994 L 163.20000000000002 124.24999999999994 C 173.55 124.24999999999994 182.00000000000003 124.19999999999995 182.00000000000003 124.09999999999994 z M 98.75000000000003 105.74999999999994 C 99.65000000000003 103.84999999999994 102.30000000000003 98.09999999999994 104.70000000000003 92.99999999999994 C 107.05000000000003 87.89999999999995 109.25000000000003 83.34999999999994 109.55000000000003 82.84999999999994 C 109.85000000000002 82.29999999999994 109.95000000000003 81.79999999999994 109.85000000000002 81.69999999999993 C 109.65000000000002 81.49999999999993 105.00000000000003 84.14999999999993 91.75000000000003 91.94999999999993 C 89.55000000000003 93.24999999999993 86.05000000000003 95.29999999999993 84.00000000000003 96.49999999999993 C 78.25000000000003 99.79999999999993 77.95000000000003 100.04999999999993 78.10000000000002 100.44999999999993 C 78.25000000000003 100.84999999999994 85.20000000000002 107.44999999999993 91.20000000000002 112.89999999999993 L 94.10000000000002 115.54999999999994 L 95.60000000000002 112.39999999999993 C 96.40000000000002 110.64999999999993 97.85000000000002 107.69999999999993 98.75000000000003 105.74999999999993 z M 87.40000000000003 92.19999999999995 C 93.35000000000004 88.69999999999995 101.45000000000003 83.99999999999994 105.40000000000003 81.64999999999995 C 109.30000000000004 79.34999999999995 112.75000000000003 77.59999999999995 113.00000000000003 77.74999999999994 C 113.75000000000003 78.19999999999995 113.60000000000002 79.59999999999994 112.75000000000003 80.84999999999994 C 111.80000000000003 82.19999999999993 112.05000000000003 82.34999999999994 115.80000000000003 82.44999999999993 L 118.90000000000002 82.54999999999993 L 121.50000000000001 77.64999999999992 C 122.95000000000002 74.94999999999992 124.15000000000002 72.69999999999992 124.25000000000001 72.59999999999992 C 124.35000000000001 72.44999999999992 134.5 73.39999999999992 141.9 74.24999999999993 C 143.9 74.44999999999993 144.75 74.09999999999992 152.6 69.74999999999993 C 157.29999999999998 67.09999999999992 161.65 64.84999999999992 162.25 64.69999999999993 C 163.15 64.49999999999993 164.8 65.69999999999993 170.55 70.69999999999993 L 177.75 76.99999999999993 L 179.25 74.19999999999993 C 180.05 72.69999999999993 181.7 69.69999999999993 182.9 67.59999999999994 C 184.1 65.49999999999994 186.20000000000002 61.59999999999994 187.6 58.999999999999936 C 189 56.399999999999935 191.04999999999998 52.69999999999994 192.1 50.84999999999994 C 193.2 48.94999999999994 194 47.34999999999994 193.9 47.19999999999994 C 193.8 47.09999999999994 191.45000000000002 46.59999999999994 188.70000000000002 46.04999999999994 C 186.00000000000003 45.49999999999994 178.25000000000003 43.89999999999994 171.50000000000003 42.49999999999994 C 164.75000000000003 41.099999999999945 158.25000000000003 39.74999999999994 157.00000000000003 39.49999999999994 C 155.75000000000003 39.24999999999994 149.25000000000003 37.89999999999994 142.50000000000003 36.49999999999994 C 135.75000000000003 35.099999999999945 126.35000000000002 33.14999999999994 121.60000000000002 32.199999999999946 L 112.95000000000002 30.449999999999946 L 102.80000000000001 40.349999999999945 C 97.25000000000001 45.79999999999995 85.25000000000001 57.54999999999994 76.10000000000001 66.49999999999994 C 67.00000000000001 75.44999999999995 59.55000000000001 82.89999999999995 59.650000000000006 83.09999999999994 C 59.800000000000004 83.69999999999993 75.7 98.44999999999993 76.15 98.49999999999994 C 76.35000000000001 98.49999999999994 81.4 95.64999999999995 87.4 92.19999999999995 z M 207.95000000000005 93.24999999999994 L 208.60000000000005 89.99999999999994 L 206.50000000000006 84.84999999999994 C 201.75000000000006 73.39999999999993 200.85000000000005 71.24999999999994 200.75000000000006 71.09999999999994 C 200.60000000000005 70.94999999999993 187.45000000000005 79.94999999999993 185.25000000000006 81.69999999999993 C 184.30000000000007 82.44999999999993 184.35000000000005 82.54999999999993 187.25000000000006 85.19999999999993 C 190.65000000000006 88.29999999999993 191.15000000000006 88.39999999999993 197.50000000000006 87.24999999999993 C 199.70000000000005 86.89999999999993 201.45000000000005 86.79999999999993 201.80000000000007 87.04999999999993 C 202.10000000000008 87.29999999999993 203.30000000000007 89.49999999999993 204.45000000000007 91.99999999999993 C 205.65000000000006 94.44999999999993 206.75000000000009 96.49999999999993 206.95000000000007 96.49999999999993 C 207.15000000000006 96.49999999999993 207.60000000000008 95.04999999999993 207.95000000000007 93.24999999999993 z M 107.80000000000004 94.54999999999994 C 108.05000000000004 94.34999999999994 109.60000000000004 93.39999999999993 111.25000000000004 92.54999999999994 C 112.90000000000005 91.64999999999993 116.55000000000004 89.64999999999993 119.40000000000005 88.09999999999994 L 124.55000000000005 85.24999999999994 L 121.90000000000005 84.89999999999995 C 120.45000000000005 84.74999999999994 117.45000000000005 84.44999999999995 115.20000000000005 84.29999999999995 L 111.15000000000005 84.04999999999995 L 110.25000000000004 85.89999999999995 C 107.10000000000004 92.39999999999995 106.05000000000004 94.99999999999994 106.65000000000005 94.99999999999994 C 107.00000000000004 94.99999999999994 107.50000000000004 94.79999999999994 107.80000000000005 94.54999999999994 z M 166.25000000000006 91.69999999999995 C 175.05000000000007 90.44999999999995 183.45000000000005 89.29999999999994 184.90000000000006 89.14999999999995 C 186.30000000000007 88.99999999999994 187.50000000000006 88.69999999999995 187.50000000000006 88.49999999999994 C 187.50000000000006 88.29999999999994 185.55000000000007 86.44999999999995 183.15000000000006 84.39999999999995 C 180.70000000000007 82.34999999999995 175.25000000000006 77.54999999999995 171.00000000000006 73.79999999999995 C 166.75000000000006 70.09999999999995 163.15000000000006 66.99999999999996 163.00000000000006 66.99999999999996 C 162.85000000000005 67.04999999999995 160.30000000000007 71.09999999999995 157.25000000000006 76.04999999999995 C 154.25000000000006 80.99999999999996 151.00000000000006 86.19999999999996 150.10000000000005 87.59999999999995 C 149.15000000000006 89.04999999999995 147.85000000000005 91.19999999999995 147.10000000000005 92.44999999999995 L 145.80000000000004 94.64999999999995 L 148.05000000000004 94.29999999999995 C 149.25000000000003 94.09999999999995 157.45000000000005 92.94999999999996 166.25000000000003 91.69999999999996 z M 134.65000000000006 79.59999999999995 C 137.90000000000006 77.84999999999995 140.45000000000007 76.24999999999996 140.30000000000007 76.14999999999995 C 139.95000000000007 75.79999999999995 125.80000000000007 74.54999999999995 125.35000000000007 74.84999999999995 C 125.05000000000007 75.04999999999995 121.70000000000006 81.29999999999995 121.35000000000007 82.34999999999995 C 121.20000000000006 82.84999999999995 126.35000000000007 83.39999999999995 127.75000000000007 83.09999999999995 C 128.30000000000007 82.94999999999995 131.40000000000006 81.39999999999995 134.65000000000006 79.59999999999995 z M 222.50000000000006 60.799999999999955 C 222.50000000000006 60.649999999999956 220.30000000000007 55.649999999999956 217.55000000000007 49.649999999999956 C 214.85000000000008 43.649999999999956 211.95000000000007 37.149999999999956 211.05000000000007 35.149999999999956 C 210.20000000000007 33.19999999999995 208.75000000000006 29.999999999999957 207.85000000000008 28.099999999999955 L 206.1500000000001 24.599999999999955 L 189.4500000000001 31.599999999999955 C 180.2500000000001 35.44999999999995 171.9500000000001 38.84999999999995 171.0000000000001 39.19999999999995 C 168.80000000000013 39.99999999999995 168.30000000000013 39.84999999999995 182.5000000000001 42.74999999999995 C 188.7000000000001 43.99999999999995 194.3500000000001 45.19999999999995 195.15000000000012 45.34999999999995 C 195.90000000000012 45.49999999999995 196.5000000000001 45.89999999999995 196.5000000000001 46.24999999999995 C 196.5000000000001 46.59999999999995 195.4500000000001 48.84999999999995 194.2000000000001 51.19999999999995 C 192.9500000000001 53.549999999999955 192.0500000000001 55.49999999999995 192.1500000000001 55.49999999999995 C 192.3000000000001 55.49999999999995 195.85000000000008 56.14999999999995 200.10000000000008 56.94999999999995 C 204.30000000000007 57.799999999999955 210.25000000000009 58.899999999999956 213.25000000000009 59.44999999999995 C 216.3000000000001 59.99999999999995 219.20000000000007 60.549999999999955 219.75000000000009 60.649999999999956 C 221.20000000000007 60.99999999999996 222.50000000000009 61.049999999999955 222.50000000000009 60.799999999999955 z" stroke-linecap="round" />
</g>
</svg>
